<?xml version="1.0" encoding="utf-8"?>
<!-- Generator: Adobe Illustrator 19.0.0, SVG Export Plug-In . SVG Version: 6.00 Build 0)  -->
<svg version="1.1" id="Layer_1" xmlns="http://www.w3.org/2000/svg" xmlns:xlink="http://www.w3.org/1999/xlink" x="0px"
     y="0px"
     viewBox="0 0 100 100" style="enable-background:new 0 0 0 0;" width="1500" height="1500" xml:space="preserve">
<g id="Arbill-Outline">
	<g id="XMLID_142_">
		<g id="XMLID_150_">
			<g id="XMLID_909_">
				<g>
					<defs>
						<path id="SVGID_1_" d="M40.7,1c-0.8-1.4-2.2-1.4-3,0L0.3,65.8c-0.8,1.4-0.1,2.6,1.5,2.6h74.8c1.6,0,2.3-1.2,1.5-2.6L40.7,1z
							 M37.7,36.5c0.8-1.4,2.2-1.4,3,0l7.4,12.8c0.8,1.4,0.2,2.6-1.5,2.6H31.8c-1.6,0-2.3-1.2-1.5-2.6L37.7,36.5z"/>
					</defs>
                    <clipPath id="SVGID_2_">
						<use xlink:href="#SVGID_1_" style="overflow:visible;"/>
					</clipPath>
                    <g id="XMLID_933_" style="clip-path:url(#SVGID_2_);">

							<linearGradient id="XMLID_21_" gradientUnits="userSpaceOnUse" x1="-5.4676" y1="40.2"
                                            x2="84.5324" y2="40.2" gradientTransform="matrix(1 0 0 -1 0 75.5)">
							<stop offset="0" style="stop-color:#A4C6E4"/>
                                <stop offset="1" style="stop-color:#48C7F4"/>
						</linearGradient>
                        <path id="XMLID_934_" style="fill:url(#XMLID_21_);" d="M84.5,73.4c0,1.7-1.4,3-3,3h-84c-1.6,0-3-1.3-3-3V-2.8
							c0-1.6,1.4-3,3-3h84c1.6,0,3,1.4,3,3V73.4z"/>
					</g>
				</g>
                <g>
					<defs>
						<path id="SVGID_3_" d="M40.7,1c-0.8-1.4-2.2-1.4-3,0L0.3,65.8c-0.8,1.4-0.1,2.6,1.5,2.6h74.8c1.6,0,2.3-1.2,1.5-2.6L40.7,1z
							 M37.7,36.5c0.8-1.4,2.2-1.4,3,0l7.4,12.8c0.8,1.4,0.2,2.6-1.5,2.6H31.8c-1.6,0-2.3-1.2-1.5-2.6L37.7,36.5z"/>
					</defs>
                    <clipPath id="SVGID_4_">
						<use xlink:href="#SVGID_3_" style="overflow:visible;"/>
					</clipPath>
                    <g id="XMLID_928_" style="clip-path:url(#SVGID_4_);">
						<g id="XMLID_931_">

								<linearGradient id="XMLID_22_" gradientUnits="userSpaceOnUse" x1="52.7381" y1="24.4951"
                                                x2="78.5484" y2="-1.3151" gradientTransform="matrix(1 0 0 -1 0 75.5)">
								<stop offset="0" style="stop-color:#4389C8"/>
                                    <stop offset="1" style="stop-color:#3470A9"/>
							</linearGradient>
                            <path id="XMLID_932_" style="fill:url(#XMLID_22_);" d="M48.6,71.8c-1.6,0-2.3-1.2-1.5-2.6l17-29.4c0.8-1.4,2.2-1.4,3,0
								l17,29.4c0.8,1.4,0.2,2.6-1.5,2.6H48.6z"/>
						</g>
                        <g id="XMLID_929_">

								<linearGradient id="XMLID_23_" gradientUnits="userSpaceOnUse" x1="57.3" y1="13.275"
                                                x2="94.9826" y2="13.275" gradientTransform="matrix(1 0 0 -1 0 75.5)">
								<stop offset="0" style="stop-color:#384E9F"/>
                                    <stop offset="1" style="stop-color:#293C7A"/>
							</linearGradient>
                            <path id="XMLID_930_" style="fill:url(#XMLID_23_);" d="M59.1,78.8c-1.6,0-2.3-1.2-1.5-2.6l17-29.4c0.8-1.4,2.2-1.4,3,0
								l17,29.4c0.8,1.4,0.2,2.6-1.5,2.6H59.1z"/>
						</g>
					</g>
				</g>
			</g>
		</g>
	</g>
</g>
</svg>
